<?xml version="1.0" encoding="utf-8"?>
<!-- Generator: Adobe Illustrator 24.0.0, SVG Export Plug-In . SVG Version: 6.00 Build 0)  -->
<svg version="1.1" id="图层_1" xmlns="http://www.w3.org/2000/svg"
	xmlns:xlink="http://www.w3.org/1999/xlink" x="0px" y="0px"
	viewBox="0 0 400 400" style="enable-background:new 0 0 400 400;" xml:space="preserve">
<style type="text/css">
	.st0{fill-rule:evenodd;clip-rule:evenodd;fill:#1E2EB8;}
	.st1{fill-rule:evenodd;clip-rule:evenodd;fill:#FFFFFF;}
	.st2{fill-rule:evenodd;clip-rule:evenodd;fill:#FF7E00;}
</style>
<path class="st0" d="M200.3,0.3c147.3,0,200,52.7,200,200s-52.7,200-200,200s-200-52.7-200-200S53,0.3,200.3,0.3z"/>
<g>
	<g>
		<g>
			<g>
				<path class="st1" d="M261.3,141.1h-122c-40.1,0-72.6,29.6-72.6,66v6.3c0,36.4,32.6,66,72.6,66h122c40.1,0,72.6-29.6,72.6-66
					v-6.3C333.9,170.7,301.3,141.1,261.3,141.1z M302.7,213.4c0,19.6-17.6,35.6-39.2,35.6H137.1c-21.6,0-39.2-16-39.2-35.6v-6.3
					c0-19.6,17.6-35.6,39.2-35.6h126.4c21.6,0,39.2,16,39.2,35.6V213.4z M156,182.2c-8.1,0-14.7,6.6-14.7,14.7v22.6
					c0,8.1,6.6,14.7,14.7,14.7c8.1,0,14.7-6.6,14.7-14.7v-22.6C170.7,188.8,164.1,182.2,156,182.2z M248.9,182.2
					c-8.1,0-14.7,6.6-14.7,14.7v22.6c0,8.1,6.6,14.7,14.7,14.7c8.1,0,14.7-6.6,14.7-14.7V197C263.6,188.8,257,182.2,248.9,182.2z"/>
			</g>
		</g>
		<path class="st2" d="M217.5,122.5H183c-8.4,0-15.2-6.8-15.2-15.2v0c0-8.4,6.8-15.2,15.2-15.2h34.5c8.4,0,15.2,6.8,15.2,15.2v0
			C232.7,115.7,225.9,122.5,217.5,122.5z"/>
	</g>
</g>
</svg>
